<svg width="20" height="20" viewBox="0 0 20 20" fill="none" xmlns="http://www.w3.org/2000/svg">
<path d="M2.76085 1.67231C2.8315 1.60166 2.86682 1.56634 2.89794 1.53775C3.6631 0.834667 4.83921 0.834667 5.60436 1.53775C5.63548 1.56634 5.67081 1.60166 5.74145 1.67231L7.19965 3.1305C8.0017 3.93256 8.23109 5.14379 7.77785 6.18358C7.32461 7.22336 7.554 8.4346 8.35605 9.23665L10.7529 11.6335C11.5549 12.4355 12.7661 12.6649 13.8059 12.2117C14.8457 11.7584 16.057 11.9878 16.859 12.7899L18.3172 14.2481C18.3878 14.3187 18.4232 14.354 18.4518 14.3851C19.1548 15.1503 19.1548 16.3264 18.4518 17.0916C18.4232 17.1227 18.3878 17.158 18.3172 17.2287L17.4309 18.115C16.7091 18.8368 15.6685 19.1398 14.6721 18.9184C7.88248 17.4096 2.57995 12.107 1.07115 5.31744C0.849715 4.32097 1.15272 3.28045 1.87451 2.55865L2.76085 1.67231Z" stroke="white" stroke-width="1.5"/>
</svg>
