<svg width="24" height="24" viewBox="0 0 24 24" fill="none" xmlns="http://www.w3.org/2000/svg">
<path d="M8.73993 20.1794L8.74013 20.1796C9.65633 21.0612 10.8283 21.5 12.0001 21.5C13.1725 21.5 14.3428 21.0609 15.2475 20.182L15.2503 20.1794C18.0692 17.4689 20.9662 13.3682 19.8887 8.61585C18.9343 4.41751 15.279 2.5 12.0001 2.5H12.0001H12.0001H12.0001H12.0001H12.0001H12H12H12H12H12H12H12H12H12H12H12H12H11.9999H11.9999H11.9999H11.9999H11.9999H11.9999H11.9999H11.9999H11.9999H11.9999H11.9999H11.9998H11.9998H11.9998H11.9998H11.9998H11.9998H11.9998H11.9998H11.9998H11.9997H11.9997H11.9997H11.9997H11.9997H11.9997H11.9997H11.9997H11.9996H11.9996H11.9996H11.9996H11.9996H11.9996H11.9996H11.9996H11.9996H11.9996H11.9996H11.9996H11.9996H11.9995H11.9995H11.9995H11.9995H11.9995H11.9995H11.9995H11.9995H11.9995H11.9995H11.9995H11.9994H11.9994H11.9994H11.9994H11.9994H11.9994H11.9994H11.9994H11.9994H11.9994H11.9993H11.9993H11.9993H11.9993H11.9993H11.9993H11.9993H11.9993H11.9993H11.9992H11.9992H11.9992H11.9992H11.9992H11.9992H11.9992H11.9992H11.9992H11.9991H11.9991H11.9991H11.9991H11.9991H11.9991H11.9991H11.9991H11.999H11.999H11.999H11.999H11.999H11.999H11.999H11.9989H11.9989H11.9989H11.9989H11.9989H11.9989H11.9989H11.9988H11.9988H11.9988H11.9988H11.9988H11.9988H11.9988H11.9987H11.9987H11.9987H11.9987H11.9987H11.9987H11.9986H11.9986H11.9986H11.9986H11.9986H11.9986H11.9985H11.9985H11.9985H11.9985H11.9985H11.9985H11.9984H11.9984H11.9984H11.9984H11.9984H11.9984H11.9983H11.9983H11.9983H11.9983H11.9983H11.9982H11.9982H11.9982H11.9982H11.9982H11.9981H11.9981H11.9981H11.9981H11.9981H11.998H11.998H11.998H11.998H11.998H11.9979H11.9979H11.9979H11.9979H11.9979H11.9978H11.9978H11.9978H11.9978H11.9977H11.9977H11.9977H11.9977H11.9977H11.9976H11.9976H11.9976H11.9976H11.9975H11.9975H11.9975H11.9975H11.9974H11.9974H11.9974H11.9974H11.9973H11.9973H11.9973H11.9973H11.9972H11.9972H11.9972H11.9972H11.9971H11.9971H11.9971H11.9971H11.997H11.997H11.997H11.997H11.9969H11.9969H11.9969H11.9968H11.9968H11.9968H11.9968H11.9967H11.9967H11.9967H11.9966H11.9966H11.9966H11.9966H11.9965H11.9965H11.9965H11.9964H11.9964H11.9964H11.9964H11.9963H11.9963H11.9963H11.9962H11.9962H11.9962H11.9961H11.9961H11.9961H11.996H11.996H11.996H11.9959H11.9959H11.9959H11.9958H11.9958H11.9958H11.9957H11.9957H11.9957H11.9956H11.9956H11.9956H11.9955H11.9955H11.9955H11.9954H11.9954H11.9954H11.9953H11.9953H11.9953H11.9952H11.9952H11.9951H11.9951H11.9951H11.995H11.995H11.995H11.9949H11.9949H11.9948H11.9948H11.9948H11.9947H11.9947H11.9947H11.9946H11.9946H11.9945H11.9945H11.9945H11.9944H11.9944H11.9943H11.9943H11.9943H11.9942H11.9942H11.9941H11.9941H11.994H11.994H11.994H11.9939H11.9939H11.9938H11.9938H11.9937H11.9937H11.9937H11.9936H11.9936H11.9935H11.9935H11.9934H11.9934H11.9934H11.9933H11.9933H11.9932H11.9932H11.9931H11.9931H11.993H11.993H11.9929H11.9929H11.9928H11.9928H11.9927H11.9927H11.9927H11.9926H11.9926H11.9925H11.9925H11.9924H11.9924H11.9923H11.9923H11.9922H11.9922H11.9921H11.9921H11.992H11.992H11.9919H11.9919H11.9918H11.9918H11.9917H11.9916H11.9916H11.9915H11.9915H11.9914H11.9914H11.9913H11.9913H11.9912H11.9912H11.9911H11.9911H11.991H11.9909H11.9909H11.9908H11.9908H11.9907H11.9907H11.9906H11.9906H11.9905H11.9904H11.9904H11.9903H11.9903H11.9902H11.9902H11.9901C8.71922 2.5 5.05551 4.40915 4.10153 8.60585L8.73993 20.1794ZM8.73993 20.1794C5.92158 17.4694 3.02404 13.3587 4.10145 8.60622L8.73993 20.1794ZM8.1001 10.31C8.1001 12.4642 9.84588 14.21 12.0001 14.21C14.1543 14.21 15.9001 12.4642 15.9001 10.31C15.9001 8.15579 14.1543 6.41 12.0001 6.41C9.84588 6.41 8.1001 8.15579 8.1001 10.31Z" stroke="white" stroke-width="1.5"/>
</svg>
