<svg width="24" height="25" viewBox="0 0 24 25" fill="none" xmlns="http://www.w3.org/2000/svg">
<path d="M11.6596 11.37C11.5596 11.36 11.4396 11.36 11.3296 11.37C8.94957 11.29 7.05957 9.34 7.05957 6.94C7.05957 4.49 9.03957 2.5 11.4996 2.5C13.9496 2.5 15.9396 4.49 15.9396 6.94C15.9296 9.34 14.0396 11.29 11.6596 11.37Z" stroke="black" stroke-width="1.5" stroke-linecap="round" stroke-linejoin="round"/>
<path d="M6.65973 15.06C4.23973 16.68 4.23973 19.32 6.65973 20.93C9.40973 22.77 13.9197 22.77 16.6697 20.93C19.0897 19.31 19.0897 16.67 16.6697 15.06C13.9297 13.23 9.41973 13.23 6.65973 15.06Z" stroke="black" stroke-width="1.5" stroke-linecap="round" stroke-linejoin="round"/>
</svg>
