<svg width="68" height="47" viewBox="0 0 68 47" fill="none" xmlns="http://www.w3.org/2000/svg">
<path fill-rule="evenodd" clip-rule="evenodd" d="M12.6281 10.786C13.7116 10.5241 14.8191 10.3923 15.93 10.393C24.7275 10.393 31.8572 18.541 31.8572 28.588C31.8572 38.638 24.7275 46.786 15.93 46.786C7.1325 46.786 0 38.641 0 28.588C0 28.294 0.005625 27.997 0.0196875 27.703H0C0 12.538 10.8 0.198975 24.075 0.198975V6.30697C19.7691 6.30697 15.7978 7.98097 12.6281 10.786ZM48.2738 10.786C49.3369 10.528 50.4394 10.393 51.57 10.393C60.3675 10.393 67.5 18.541 67.5 28.588C67.5 38.638 60.3675 46.786 51.57 46.786C42.7725 46.786 35.6428 38.641 35.6428 28.588C35.6428 28.294 35.6484 27.997 35.6625 27.703H35.6428C35.6428 12.538 46.4428 0.198975 59.7178 0.198975V6.30697C55.4091 6.30697 51.4434 7.98097 48.2738 10.786Z" fill="#DBD3C8"/>
</svg>
